<svg width="71" height="63" viewBox="0 0 71 63" fill="none" xmlns="http://www.w3.org/2000/svg">
<path d="M7.5 14.5C7.5 6.49187 13.9919 0 22 0V0H23.824C28.2124 0 30.1187 5.55187 26.656 8.24771V8.24771C22.4227 11.5434 26.2802 18.1897 31.2417 16.1488L58.5696 4.90755C64.2575 2.56783 70.5 6.74998 70.5 12.9003V56C70.5 59.866 67.366 63 63.5 63H60.4389C58.2635 63 56.5 61.2365 56.5 59.0611V59.0611C56.5 56.2106 53.5661 54.304 50.9613 55.4616L36.727 61.788C34.929 62.5871 32.9834 63 31.0159 63H23.5C14.6634 63 7.5 55.8366 7.5 47V14.5Z" fill="black"/>
<path d="M22.4899 44V27.2H23.9539L31.6339 40.304H30.8659L38.4739 27.2H39.9379V44H38.2339V29.864H38.6419L31.6339 41.864H30.7939L23.7379 29.864H24.1939V44H22.4899ZM50.0003 44L42.5603 27.2H44.4803L51.4403 43.016H50.3843L57.3923 27.2H59.1923L51.7523 44H50.0003Z" fill="#C5C6C7"/>
</svg>
